<?xml version="1.0" encoding="UTF-8"?>
<svg xmlns="http://www.w3.org/2000/svg" width="1024" height="1024" viewBox="0 0 1024 1024" role="img" aria-label="Shay Design SD logo">
  <title>Shay Design SD Logo</title>
  <path d="M 877.00 170.88 L 875.74 170.88 L 874.48 169.62 L 840.56 169.62 L 839.30 170.88 L 838.05 170.88 L 838.05 199.77 L 743.81 294.01 L 743.81 295.26 L 742.56 296.52 L 741.30 296.52 L 738.79 299.03 L 738.79 300.29 L 644.55 394.52 L 644.55 395.78 L 642.04 398.29 L 640.79 398.29 L 639.53 399.55 L 639.53 400.80 L 555.35 484.99 L 555.35 486.24 L 550.32 491.27 L 549.07 491.27 L 549.07 492.53 L 547.81 493.78 L 546.55 493.78 L 546.55 495.04 L 336.73 704.86 L 331.70 704.86 L 330.44 703.61 L 326.67 703.61 L 325.42 702.35 L 321.65 702.35 L 320.39 701.09 L 317.88 701.09 L 316.62 699.84 L 314.11 699.84 L 310.34 697.33 L 307.83 697.33 L 304.06 694.81 L 301.55 694.81 L 300.29 693.56 L 299.03 693.56 L 297.78 692.30 L 296.52 692.30 L 295.26 691.04 L 294.01 691.04 L 292.75 689.79 L 291.49 689.79 L 290.24 688.53 L 288.98 688.53 L 287.73 687.27 L 283.96 686.02 L 281.44 683.50 L 277.67 682.25 L 275.16 679.73 L 273.90 679.73 L 272.65 678.48 L 271.39 678.48 L 268.88 675.97 L 267.62 675.97 L 263.85 672.20 L 262.60 672.20 L 258.83 668.43 L 257.57 668.43 L 252.54 663.40 L 251.29 663.40 L 243.75 655.86 L 242.49 655.86 L 228.67 642.04 L 228.67 640.79 L 219.88 631.99 L 219.88 630.73 L 214.85 625.71 L 214.85 624.45 L 207.31 615.66 L 207.31 614.40 L 204.80 611.89 L 204.80 610.63 L 202.29 608.12 L 202.29 606.86 L 199.77 604.35 L 199.77 603.09 L 194.75 596.81 L 193.49 593.04 L 190.98 590.53 L 190.98 589.27 L 189.72 588.01 L 189.72 586.76 L 188.47 585.50 L 187.21 581.73 L 184.70 579.22 L 184.70 577.96 L 183.44 576.71 L 183.44 575.45 L 182.18 574.19 L 182.18 572.94 L 180.93 571.68 L 180.93 570.42 L 179.67 569.17 L 179.67 567.91 L 178.41 566.66 L 178.41 565.40 L 177.16 564.14 L 177.16 562.89 L 173.39 556.60 L 173.39 554.09 L 172.13 552.83 L 172.13 551.58 L 168.36 549.07 L 165.85 549.07 L 164.59 550.32 L 163.34 550.32 L 163.34 669.68 L 164.59 670.94 L 165.85 670.94 L 167.11 672.20 L 170.88 673.45 L 173.39 675.97 L 174.65 675.97 L 175.90 677.22 L 177.16 677.22 L 178.41 678.48 L 179.67 678.48 L 180.93 679.73 L 182.18 679.73 L 183.44 680.99 L 184.70 680.99 L 185.95 682.25 L 187.21 682.25 L 188.47 683.50 L 189.72 683.50 L 190.98 684.76 L 192.24 684.76 L 193.49 686.02 L 194.75 686.02 L 196.00 687.27 L 197.26 687.27 L 198.52 688.53 L 199.77 688.53 L 206.06 692.30 L 208.57 692.30 L 214.85 696.07 L 217.36 696.07 L 218.62 697.33 L 219.88 697.33 L 221.13 698.58 L 223.65 698.58 L 227.42 701.09 L 229.93 701.09 L 231.19 702.35 L 233.70 702.35 L 237.47 704.86 L 239.98 704.86 L 241.24 706.12 L 245.01 706.12 L 246.26 707.38 L 248.78 707.38 L 250.03 708.63 L 252.54 708.63 L 253.80 709.89 L 256.31 709.89 L 257.57 711.15 L 261.34 711.15 L 262.60 712.40 L 266.37 712.40 L 267.62 713.66 L 271.39 713.66 L 272.65 714.92 L 276.42 714.92 L 277.67 716.17 L 281.44 716.17 L 282.70 717.43 L 287.73 717.43 L 288.98 718.68 L 294.01 718.68 L 295.26 719.94 L 300.29 719.94 L 301.55 721.20 L 307.83 721.20 L 309.08 722.45 L 316.62 722.45 L 317.88 723.71 L 311.60 729.99 L 311.60 731.25 L 307.83 735.02 L 306.57 735.02 L 305.32 736.27 L 305.32 737.53 L 302.80 740.04 L 301.55 740.04 L 301.55 741.30 L 299.03 743.81 L 297.78 743.81 L 291.49 750.10 L 291.49 751.35 L 286.47 756.38 L 285.21 756.38 L 285.21 757.63 L 282.70 760.15 L 281.44 760.15 L 281.44 761.40 L 278.93 763.92 L 277.67 763.92 L 275.16 766.43 L 275.16 767.69 L 178.41 864.43 L 149.52 864.43 L 148.26 865.69 L 147.00 865.69 L 147.00 884.53 L 145.75 885.79 L 145.75 895.84 L 147.00 897.10 L 147.00 898.36 L 145.75 899.61 L 145.75 902.13 L 147.00 903.38 L 148.26 903.38 L 149.52 904.64 L 183.44 904.64 L 184.70 903.38 L 185.95 903.38 L 185.95 875.74 L 427.19 634.50 L 427.19 633.25 L 428.45 631.99 L 429.70 631.99 L 457.34 604.35 L 457.34 603.09 L 464.88 595.55 L 466.14 595.55 L 466.14 594.30 L 491.27 569.17 L 492.53 569.17 L 492.53 567.91 L 606.86 453.58 L 608.12 453.58 L 609.37 454.83 L 618.17 454.83 L 619.43 456.09 L 625.71 456.09 L 626.96 457.34 L 631.99 457.34 L 633.25 458.60 L 637.02 458.60 L 638.27 459.86 L 642.04 459.86 L 643.30 461.11 L 645.81 461.11 L 647.07 462.37 L 649.58 462.37 L 650.84 463.63 L 653.35 463.63 L 654.61 464.88 L 657.12 464.88 L 658.38 466.14 L 660.89 466.14 L 667.17 469.91 L 669.68 469.91 L 670.94 471.17 L 672.20 471.17 L 674.71 473.68 L 675.97 473.68 L 677.22 474.93 L 680.99 476.19 L 683.50 478.70 L 687.27 479.96 L 689.79 482.47 L 691.04 482.47 L 693.56 484.99 L 694.81 484.99 L 698.58 488.76 L 699.84 488.76 L 704.86 493.78 L 706.12 493.78 L 716.17 503.83 L 717.43 503.83 L 723.71 510.12 L 723.71 511.37 L 732.51 520.17 L 732.51 521.42 L 737.53 526.45 L 737.53 527.71 L 741.30 531.47 L 741.30 532.73 L 743.81 535.24 L 743.81 536.50 L 748.84 542.78 L 748.84 544.04 L 750.10 545.30 L 750.10 546.55 L 752.61 549.07 L 752.61 550.32 L 753.87 551.58 L 753.87 552.83 L 755.12 554.09 L 756.38 557.86 L 758.89 560.37 L 758.89 562.89 L 760.15 564.14 L 760.15 565.40 L 761.40 566.66 L 761.40 567.91 L 765.17 574.19 L 765.17 576.71 L 767.69 580.48 L 767.69 582.99 L 768.94 584.25 L 768.94 586.76 L 771.46 590.53 L 771.46 593.04 L 772.71 594.30 L 772.71 598.07 L 773.97 599.32 L 773.97 601.84 L 775.22 603.09 L 775.22 605.60 L 776.48 606.86 L 776.48 610.63 L 777.74 611.89 L 777.74 615.66 L 778.99 616.91 L 778.99 621.94 L 780.25 623.20 L 780.25 628.22 L 781.51 629.48 L 781.51 635.76 L 782.76 637.02 L 782.76 643.30 L 784.02 644.55 L 784.02 654.61 L 785.28 655.86 L 785.28 706.12 L 784.02 707.38 L 784.02 717.43 L 782.76 718.68 L 782.76 726.22 L 781.51 727.48 L 781.51 733.76 L 780.25 735.02 L 780.25 738.79 L 778.99 740.04 L 778.99 745.07 L 777.74 746.33 L 777.74 750.10 L 776.48 751.35 L 776.48 755.12 L 775.22 756.38 L 775.22 760.15 L 773.97 761.40 L 773.97 763.92 L 772.71 765.17 L 772.71 767.69 L 771.46 768.94 L 771.46 771.46 L 770.20 772.71 L 770.20 775.22 L 768.94 776.48 L 768.94 778.99 L 767.69 780.25 L 767.69 781.51 L 766.43 782.76 L 766.43 785.28 L 762.66 791.56 L 762.66 794.07 L 761.40 795.33 L 761.40 796.58 L 760.15 797.84 L 760.15 799.10 L 758.89 800.35 L 758.89 801.61 L 757.63 802.87 L 757.63 804.12 L 756.38 805.38 L 755.12 809.15 L 752.61 811.66 L 751.35 815.43 L 748.84 817.94 L 747.58 821.71 L 745.07 824.23 L 745.07 825.48 L 741.30 829.25 L 741.30 830.51 L 738.79 833.02 L 738.79 834.28 L 732.51 840.56 L 732.51 841.82 L 711.15 863.18 L 709.89 863.18 L 703.61 869.46 L 702.35 869.46 L 699.84 871.97 L 698.58 871.97 L 694.81 875.74 L 693.56 875.74 L 691.04 878.25 L 689.79 878.25 L 688.53 879.51 L 687.27 879.51 L 686.02 880.77 L 684.76 880.77 L 683.50 882.02 L 682.25 882.02 L 680.99 883.28 L 679.73 883.28 L 673.45 887.05 L 670.94 887.05 L 667.17 889.56 L 664.66 889.56 L 663.40 890.82 L 660.89 890.82 L 659.63 892.07 L 657.12 892.07 L 655.86 893.33 L 652.09 893.33 L 650.84 894.59 L 645.81 894.59 L 644.55 895.84 L 639.53 895.84 L 638.27 897.10 L 630.73 897.10 L 629.48 898.36 L 531.47 898.36 L 530.22 897.10 L 527.71 897.10 L 526.45 895.84 L 523.94 895.84 L 521.42 893.33 L 520.17 893.33 L 516.40 889.56 L 516.40 888.30 L 513.88 885.79 L 513.88 884.53 L 512.63 883.28 L 512.63 880.77 L 511.37 879.51 L 511.37 877.00 L 510.12 875.74 L 510.12 871.97 L 508.86 870.71 L 508.86 615.66 L 510.12 614.40 L 510.12 608.12 L 511.37 606.86 L 511.37 601.84 L 512.63 600.58 L 512.63 596.81 L 513.88 595.55 L 513.88 589.27 L 512.63 589.27 L 511.37 588.01 L 510.12 589.27 L 508.86 589.27 L 496.29 601.84 L 495.04 601.84 L 437.24 659.63 L 437.24 858.15 L 435.99 859.41 L 435.99 868.20 L 434.73 869.46 L 434.73 873.23 L 433.47 874.48 L 433.47 877.00 L 432.22 878.25 L 432.22 880.77 L 430.96 882.02 L 429.70 885.79 L 427.19 888.30 L 427.19 889.56 L 417.14 899.61 L 415.88 899.61 L 412.11 903.38 L 410.86 903.38 L 404.57 907.15 L 402.06 907.15 L 400.80 908.41 L 397.04 909.66 L 395.78 910.92 L 395.78 915.95 L 397.04 915.95 L 398.29 917.20 L 635.76 917.20 L 637.02 915.95 L 645.81 915.95 L 647.07 914.69 L 654.61 914.69 L 655.86 913.43 L 660.89 913.43 L 662.14 912.18 L 665.91 912.18 L 667.17 910.92 L 672.20 910.92 L 673.45 909.66 L 675.97 909.66 L 677.22 908.41 L 680.99 908.41 L 682.25 907.15 L 686.02 907.15 L 687.27 905.89 L 689.79 905.89 L 691.04 904.64 L 693.56 904.64 L 697.33 902.13 L 699.84 902.13 L 701.09 900.87 L 703.61 900.87 L 704.86 899.61 L 706.12 899.61 L 707.38 898.36 L 709.89 898.36 L 716.17 894.59 L 718.68 894.59 L 719.94 893.33 L 721.20 893.33 L 722.45 892.07 L 723.71 892.07 L 724.97 890.82 L 726.22 890.82 L 727.48 889.56 L 728.74 889.56 L 729.99 888.30 L 731.25 888.30 L 732.51 887.05 L 736.27 885.79 L 738.79 883.28 L 740.04 883.28 L 741.30 882.02 L 742.56 882.02 L 745.07 879.51 L 748.84 878.25 L 751.35 875.74 L 752.61 875.74 L 755.12 873.23 L 756.38 873.23 L 760.15 869.46 L 761.40 869.46 L 765.17 865.69 L 766.43 865.69 L 771.46 860.66 L 772.71 860.66 L 784.02 849.35 L 785.28 849.35 L 791.56 843.07 L 791.56 841.82 L 800.35 833.02 L 800.35 831.76 L 806.64 825.48 L 806.64 824.23 L 810.40 820.46 L 810.40 819.20 L 812.92 816.69 L 812.92 815.43 L 815.43 812.92 L 815.43 811.66 L 820.46 805.38 L 820.46 804.12 L 821.71 802.87 L 821.71 801.61 L 824.23 799.10 L 825.48 795.33 L 828.00 792.81 L 828.00 791.56 L 829.25 790.30 L 829.25 789.05 L 830.51 787.79 L 830.51 786.53 L 831.76 785.28 L 831.76 784.02 L 833.02 782.76 L 833.02 781.51 L 836.79 775.22 L 836.79 772.71 L 838.05 771.46 L 838.05 770.20 L 839.30 768.94 L 839.30 766.43 L 841.82 762.66 L 841.82 760.15 L 843.07 758.89 L 843.07 756.38 L 844.33 755.12 L 844.33 752.61 L 845.59 751.35 L 845.59 748.84 L 846.84 747.58 L 846.84 745.07 L 848.10 743.81 L 848.10 741.30 L 849.35 740.04 L 849.35 736.27 L 850.61 735.02 L 850.61 731.25 L 851.87 729.99 L 851.87 724.97 L 853.12 723.71 L 853.12 719.94 L 854.38 718.68 L 854.38 712.40 L 855.64 711.15 L 855.64 703.61 L 856.89 702.35 L 856.89 689.79 L 858.15 688.53 L 858.15 658.38 L 856.89 657.12 L 856.89 644.55 L 855.64 643.30 L 855.64 634.50 L 854.38 633.25 L 854.38 626.96 L 853.12 625.71 L 853.12 621.94 L 851.87 620.68 L 851.87 615.66 L 850.61 614.40 L 850.61 609.37 L 849.35 608.12 L 849.35 605.60 L 848.10 604.35 L 848.10 600.58 L 846.84 599.32 L 846.84 596.81 L 845.59 595.55 L 845.59 593.04 L 844.33 591.78 L 844.33 589.27 L 843.07 588.01 L 843.07 585.50 L 841.82 584.25 L 841.82 581.73 L 840.56 580.48 L 840.56 579.22 L 839.30 577.96 L 839.30 575.45 L 836.79 571.68 L 836.79 569.17 L 835.53 567.91 L 835.53 566.66 L 834.28 565.40 L 834.28 564.14 L 833.02 562.89 L 833.02 561.63 L 831.76 560.37 L 831.76 559.12 L 830.51 557.86 L 830.51 556.60 L 829.25 555.35 L 828.00 551.58 L 825.48 549.07 L 824.23 545.30 L 821.71 542.78 L 820.46 539.01 L 817.94 536.50 L 817.94 535.24 L 814.17 531.47 L 814.17 530.22 L 810.40 526.45 L 810.40 525.19 L 805.38 520.17 L 805.38 518.91 L 780.25 493.78 L 778.99 493.78 L 773.97 488.76 L 772.71 488.76 L 768.94 484.99 L 767.69 484.99 L 763.92 481.22 L 762.66 481.22 L 760.15 478.70 L 756.38 477.45 L 753.87 474.93 L 750.10 473.68 L 747.58 471.17 L 743.81 469.91 L 741.30 467.40 L 740.04 467.40 L 738.79 466.14 L 737.53 466.14 L 731.25 462.37 L 728.74 462.37 L 727.48 461.11 L 726.22 461.11 L 719.94 457.34 L 717.43 457.34 L 713.66 454.83 L 711.15 454.83 L 709.89 453.58 L 707.38 453.58 L 706.12 452.32 L 703.61 452.32 L 699.84 449.81 L 696.07 449.81 L 694.81 448.55 L 692.30 448.55 L 691.04 447.29 L 687.27 447.29 L 686.02 446.04 L 682.25 446.04 L 680.99 444.78 L 675.97 444.78 L 674.71 443.52 L 670.94 443.52 L 669.68 442.27 L 663.40 442.27 L 662.14 441.01 L 654.61 441.01 L 653.35 439.75 L 644.55 439.75 L 643.30 438.50 L 623.20 438.50 L 621.94 437.24 L 704.86 354.32 L 704.86 353.06 L 791.56 266.37 L 791.56 265.11 L 848.10 208.57 L 874.48 208.57 L 875.74 207.31 L 877.00 207.31 Z
M 252.54 144.49 L 248.78 148.26 L 247.52 148.26 L 243.75 152.03 L 242.49 152.03 L 237.47 157.06 L 236.21 157.06 L 219.88 173.39 L 219.88 174.65 L 213.60 180.93 L 213.60 182.18 L 211.08 184.70 L 211.08 185.95 L 207.31 189.72 L 206.06 193.49 L 203.54 196.00 L 203.54 197.26 L 202.29 198.52 L 202.29 199.77 L 201.03 201.03 L 201.03 202.29 L 199.77 203.54 L 199.77 204.80 L 198.52 206.06 L 198.52 207.31 L 194.75 213.60 L 194.75 216.11 L 193.49 217.36 L 193.49 219.88 L 192.24 221.13 L 192.24 222.39 L 190.98 223.65 L 190.98 226.16 L 189.72 227.42 L 189.72 231.19 L 188.47 232.44 L 188.47 236.21 L 187.21 237.47 L 187.21 241.24 L 185.95 242.49 L 185.95 248.78 L 184.70 250.03 L 184.70 260.08 L 183.44 261.34 L 183.44 287.73 L 184.70 288.98 L 184.70 299.03 L 185.95 300.29 L 185.95 306.57 L 187.21 307.83 L 187.21 311.60 L 188.47 312.85 L 188.47 316.62 L 189.72 317.88 L 189.72 320.39 L 190.98 321.65 L 190.98 324.16 L 192.24 325.42 L 192.24 327.93 L 193.49 329.19 L 193.49 331.70 L 194.75 332.96 L 194.75 334.21 L 196.00 335.47 L 196.00 336.73 L 197.26 337.98 L 197.26 339.24 L 198.52 340.50 L 198.52 341.75 L 199.77 343.01 L 199.77 344.27 L 201.03 345.52 L 202.29 349.29 L 204.80 351.80 L 204.80 353.06 L 207.31 355.57 L 207.31 356.83 L 209.83 359.34 L 209.83 360.60 L 214.85 365.62 L 214.85 366.88 L 221.13 373.16 L 221.13 374.42 L 227.42 380.70 L 228.67 380.70 L 242.49 393.27 L 243.75 393.27 L 246.26 395.78 L 247.52 395.78 L 250.03 398.29 L 251.29 398.29 L 257.57 403.32 L 261.34 404.57 L 263.85 407.09 L 265.11 407.09 L 266.37 408.34 L 267.62 408.34 L 268.88 409.60 L 272.65 410.86 L 275.16 413.37 L 276.42 413.37 L 277.67 414.63 L 278.93 414.63 L 280.19 415.88 L 281.44 415.88 L 282.70 417.14 L 283.96 417.14 L 285.21 418.40 L 286.47 418.40 L 287.73 419.65 L 288.98 419.65 L 295.26 423.42 L 297.78 423.42 L 299.03 424.68 L 300.29 424.68 L 306.57 428.45 L 309.08 428.45 L 312.85 430.96 L 315.37 430.96 L 316.62 432.22 L 317.88 432.22 L 321.65 434.73 L 324.16 434.73 L 327.93 437.24 L 330.44 437.24 L 331.70 438.50 L 334.21 438.50 L 335.47 439.75 L 337.98 439.75 L 339.24 441.01 L 340.50 441.01 L 341.75 442.27 L 344.27 442.27 L 348.03 444.78 L 350.55 444.78 L 351.80 446.04 L 354.32 446.04 L 355.57 447.29 L 358.09 447.29 L 361.86 449.81 L 364.37 449.81 L 365.62 451.06 L 368.14 451.06 L 371.91 453.58 L 374.42 453.58 L 375.68 454.83 L 378.19 454.83 L 379.45 456.09 L 381.96 456.09 L 383.21 457.34 L 385.73 457.34 L 389.50 459.86 L 392.01 459.86 L 393.27 461.11 L 395.78 461.11 L 397.04 462.37 L 399.55 462.37 L 400.80 463.63 L 403.32 463.63 L 407.09 466.14 L 409.60 466.14 L 410.86 467.40 L 413.37 467.40 L 417.14 469.91 L 419.65 469.91 L 420.91 471.17 L 423.42 471.17 L 429.70 474.93 L 432.22 474.93 L 435.99 477.45 L 438.50 477.45 L 444.78 481.22 L 447.29 481.22 L 448.55 482.47 L 449.81 482.47 L 451.06 483.73 L 452.32 483.73 L 453.58 484.99 L 454.83 484.99 L 456.09 486.24 L 457.34 486.24 L 458.60 487.50 L 459.86 487.50 L 461.11 488.76 L 462.37 488.76 L 463.63 490.01 L 464.88 490.01 L 466.14 491.27 L 467.40 491.27 L 468.65 492.53 L 469.91 492.53 L 471.17 493.78 L 472.42 493.78 L 473.68 495.04 L 477.45 496.29 L 479.96 498.81 L 481.22 498.81 L 483.73 501.32 L 484.99 501.32 L 487.50 503.83 L 488.76 503.83 L 491.27 506.35 L 492.53 506.35 L 496.29 510.12 L 497.55 510.12 L 501.32 512.63 L 503.83 512.63 L 505.09 511.37 L 506.35 511.37 L 516.40 501.32 L 516.40 500.06 L 565.40 451.06 L 565.40 448.55 L 557.86 441.01 L 556.60 441.01 L 552.83 437.24 L 551.58 437.24 L 549.07 434.73 L 547.81 434.73 L 544.04 430.96 L 542.78 430.96 L 536.50 425.93 L 535.24 425.93 L 533.99 424.68 L 532.73 424.68 L 530.22 422.16 L 528.96 422.16 L 527.71 420.91 L 523.94 419.65 L 521.42 417.14 L 520.17 417.14 L 518.91 415.88 L 517.65 415.88 L 516.40 414.63 L 515.14 414.63 L 513.88 413.37 L 512.63 413.37 L 511.37 412.11 L 510.12 412.11 L 508.86 410.86 L 507.60 410.86 L 506.35 409.60 L 505.09 409.60 L 503.83 408.34 L 502.58 408.34 L 501.32 407.09 L 500.06 407.09 L 493.78 403.32 L 491.27 403.32 L 490.01 402.06 L 488.76 402.06 L 482.47 398.29 L 479.96 398.29 L 473.68 394.52 L 471.17 394.52 L 467.40 392.01 L 464.88 392.01 L 461.11 389.50 L 458.60 389.50 L 454.83 386.98 L 452.32 386.98 L 451.06 385.73 L 449.81 385.73 L 448.55 384.47 L 446.04 384.47 L 442.27 381.96 L 439.75 381.96 L 438.50 380.70 L 435.99 380.70 L 432.22 378.19 L 429.70 378.19 L 428.45 376.93 L 425.93 376.93 L 424.68 375.68 L 423.42 375.68 L 422.16 374.42 L 419.65 374.42 L 415.88 371.91 L 413.37 371.91 L 412.11 370.65 L 409.60 370.65 L 408.34 369.39 L 405.83 369.39 L 402.06 366.88 L 399.55 366.88 L 398.29 365.62 L 395.78 365.62 L 392.01 363.11 L 389.50 363.11 L 385.73 360.60 L 383.21 360.60 L 381.96 359.34 L 379.45 359.34 L 375.68 356.83 L 373.16 356.83 L 371.91 355.57 L 370.65 355.57 L 369.39 354.32 L 366.88 354.32 L 363.11 351.80 L 360.60 351.80 L 359.34 350.55 L 356.83 350.55 L 355.57 349.29 L 354.32 349.29 L 348.03 345.52 L 345.52 345.52 L 339.24 341.75 L 336.73 341.75 L 335.47 340.50 L 334.21 340.50 L 332.96 339.24 L 331.70 339.24 L 330.44 337.98 L 329.19 337.98 L 327.93 336.73 L 326.67 336.73 L 325.42 335.47 L 324.16 335.47 L 322.91 334.21 L 321.65 334.21 L 320.39 332.96 L 319.14 332.96 L 317.88 331.70 L 316.62 331.70 L 315.37 330.44 L 314.11 330.44 L 312.85 329.19 L 309.08 327.93 L 306.57 325.42 L 302.80 324.16 L 300.29 321.65 L 299.03 321.65 L 296.52 319.14 L 295.26 319.14 L 292.75 316.62 L 291.49 316.62 L 288.98 314.11 L 287.73 314.11 L 282.70 309.08 L 281.44 309.08 L 265.11 292.75 L 265.11 291.49 L 261.34 287.73 L 261.34 286.47 L 258.83 283.96 L 257.57 280.19 L 255.06 277.67 L 255.06 276.42 L 251.29 270.13 L 251.29 267.62 L 250.03 266.37 L 250.03 263.85 L 248.78 262.60 L 248.78 260.08 L 247.52 258.83 L 247.52 256.31 L 246.26 255.06 L 246.26 250.03 L 245.01 248.78 L 245.01 238.72 L 243.75 237.47 L 243.75 233.70 L 245.01 232.44 L 245.01 221.13 L 246.26 219.88 L 246.26 214.85 L 247.52 213.60 L 247.52 209.83 L 248.78 208.57 L 248.78 206.06 L 250.03 204.80 L 250.03 202.29 L 251.29 201.03 L 251.29 198.52 L 252.54 197.26 L 252.54 196.00 L 253.80 194.75 L 253.80 193.49 L 255.06 192.24 L 255.06 190.98 L 256.31 189.72 L 256.31 188.47 L 257.57 187.21 L 258.83 183.44 L 261.34 180.93 L 261.34 179.67 L 263.85 177.16 L 263.85 175.90 L 267.62 172.13 L 267.62 170.88 L 282.70 155.80 L 283.96 155.80 L 288.98 150.77 L 290.24 150.77 L 296.52 145.75 L 297.78 145.75 L 299.03 144.49 L 302.80 143.23 L 305.32 140.72 L 306.57 140.72 L 310.34 138.21 L 312.85 138.21 L 319.14 134.44 L 321.65 134.44 L 322.91 133.18 L 325.42 133.18 L 326.67 131.93 L 329.19 131.93 L 330.44 130.67 L 332.96 130.67 L 334.21 129.41 L 337.98 129.41 L 339.24 128.16 L 343.01 128.16 L 344.27 126.90 L 349.29 126.90 L 350.55 125.64 L 355.57 125.64 L 356.83 124.39 L 364.37 124.39 L 365.62 123.13 L 381.96 123.13 L 383.21 121.87 L 394.52 121.87 L 395.78 123.13 L 409.60 123.13 L 410.86 124.39 L 418.40 124.39 L 419.65 125.64 L 425.93 125.64 L 427.19 126.90 L 430.96 126.90 L 432.22 128.16 L 434.73 128.16 L 435.99 129.41 L 439.75 129.41 L 441.01 130.67 L 443.52 130.67 L 444.78 131.93 L 447.29 131.93 L 448.55 133.18 L 449.81 133.18 L 451.06 134.44 L 453.58 134.44 L 457.34 136.95 L 459.86 136.95 L 461.11 138.21 L 464.88 139.47 L 467.40 141.98 L 468.65 141.98 L 469.91 143.23 L 473.68 144.49 L 476.19 147.00 L 479.96 148.26 L 482.47 150.77 L 483.73 150.77 L 487.50 154.54 L 488.76 154.54 L 493.78 159.57 L 495.04 159.57 L 518.91 183.44 L 518.91 184.70 L 523.94 189.72 L 523.94 190.98 L 531.47 199.77 L 531.47 201.03 L 536.50 207.31 L 537.76 211.08 L 542.78 217.36 L 544.04 221.13 L 546.55 223.65 L 546.55 224.90 L 547.81 226.16 L 547.81 227.42 L 549.07 228.67 L 549.07 229.93 L 550.32 231.19 L 551.58 234.95 L 554.09 237.47 L 554.09 238.72 L 555.35 239.98 L 555.35 241.24 L 559.12 247.52 L 559.12 250.03 L 560.37 251.29 L 560.37 252.54 L 561.63 252.54 L 562.89 253.80 L 566.66 253.80 L 567.91 252.54 L 569.17 252.54 L 569.17 147.00 L 567.91 147.00 L 561.63 143.23 L 559.12 143.23 L 557.86 141.98 L 555.35 141.98 L 551.58 139.47 L 549.07 139.47 L 545.30 136.95 L 542.78 136.95 L 541.53 135.70 L 539.01 135.70 L 535.24 133.18 L 531.47 133.18 L 527.71 130.67 L 525.19 130.67 L 523.94 129.41 L 521.42 129.41 L 520.17 128.16 L 517.65 128.16 L 516.40 126.90 L 513.88 126.90 L 512.63 125.64 L 510.12 125.64 L 508.86 124.39 L 506.35 124.39 L 505.09 123.13 L 501.32 123.13 L 500.06 121.87 L 497.55 121.87 L 496.29 120.62 L 493.78 120.62 L 492.53 119.36 L 488.76 119.36 L 487.50 118.11 L 484.99 118.11 L 483.73 116.85 L 479.96 116.85 L 478.70 115.59 L 473.68 115.59 L 472.42 114.34 L 468.65 114.34 L 467.40 113.08 L 463.63 113.08 L 462.37 111.82 L 457.34 111.82 L 456.09 110.57 L 449.81 110.57 L 448.55 109.31 L 442.27 109.31 L 441.01 108.05 L 433.47 108.05 L 432.22 106.80 L 420.91 106.80 L 419.65 105.54 L 368.14 105.54 L 366.88 106.80 L 356.83 106.80 L 355.57 108.05 L 348.03 108.05 L 346.78 109.31 L 341.75 109.31 L 340.50 110.57 L 334.21 110.57 L 332.96 111.82 L 329.19 111.82 L 327.93 113.08 L 324.16 113.08 L 322.91 114.34 L 319.14 114.34 L 317.88 115.59 L 315.37 115.59 L 314.11 116.85 L 310.34 116.85 L 309.08 118.11 L 306.57 118.11 L 305.32 119.36 L 302.80 119.36 L 299.03 121.87 L 296.52 121.87 L 292.75 124.39 L 290.24 124.39 L 288.98 125.64 L 287.73 125.64 L 281.44 129.41 L 278.93 129.41 L 277.67 130.67 L 273.90 131.93 L 271.39 134.44 L 270.13 134.44 L 268.88 135.70 L 267.62 135.70 L 266.37 136.95 L 262.60 138.21 L 256.31 143.23 Z
M 173.39 875.74 L 174.65 877.00 L 174.65 892.07 L 173.39 893.33 L 159.57 893.33 L 158.31 892.07 L 158.31 878.25 L 159.57 877.00 L 168.36 877.00 L 169.62 875.74 Z
M 850.61 182.18 L 851.87 180.93 L 864.43 180.93 L 865.69 182.18 L 865.69 196.00 L 864.43 197.26 L 851.87 197.26 L 850.61 196.00 Z" fill="#000000" fill-rule="evenodd" clip-rule="evenodd"/>
</svg>
